<svg width="67.25mm" height="30.25mm" viewBox="0 0 67.25 30.25" xmlns="http://www.w3.org/2000/svg"><g id="svgGroup" stroke-linecap="round" fill-rule="evenodd" font-size="9pt" stroke="#000" stroke-width="0.25mm" fill="none" style="stroke:#000;stroke-width:0.25mm;fill:none"><path d="M 0 27.75 A 2.5 2.5 0 0 0 2.5 30.25 L 64.75 30.25 A 2.5 2.5 0 0 0 67.25 27.75 L 67.25 2.5 A 2.5 2.5 0 0 0 64.75 0 L 2.5 0 A 2.5 2.5 0 0 0 0 2.5 L 0 27.75 Z M 4.5 26.75 m -1.38 0 a 1.38 1.38 0 0 1 2.76 0 a 1.38 1.38 0 0 1 -2.76 0 z M 62.75 26.75 m -1.38 0 a 1.38 1.38 0 0 1 2.76 0 a 1.38 1.38 0 0 1 -2.76 0 z M 4.5 3.5 m -1.38 0 a 1.38 1.38 0 0 1 2.76 0 a 1.38 1.38 0 0 1 -2.76 0 z M 62.75 3.5 m -1.38 0 a 1.38 1.38 0 0 1 2.76 0 a 1.38 1.38 0 0 1 -2.76 0 z M 4.5 26.75 m 0 0 a 0 0 0 0 1 0 0 a 0 0 0 0 1 0 0 z M 62.75 26.75 m 0 0 a 0 0 0 0 1 0 0 a 0 0 0 0 1 0 0 z M 4.5 3.5 m 0 0 a 0 0 0 0 1 0 0 a 0 0 0 0 1 0 0 z M 62.75 3.5 m 0 0 a 0 0 0 0 1 0 0 a 0 0 0 0 1 0 0 z" vector-effect="non-scaling-stroke"/></g></svg>
